# xmcd CD database file
#
# Track frame offsets:
#	187
#	21047
#	34862
#	57280
#	79105
#	99330
#	117522
#	130810
#	150920
#	175167
#	184995
#
# Disc length: 2796 seconds
#
# Revision: 1
# Processed by: cddbd v1.5.2PL0 Copyright (c) Steve Scherf et al.
# Submitted via: CDex 1.70beta2
#
DISCID=840aea0b
DTITLE=LA-PPISCH - Q
DYEAR=1997
DGENRE=Ska
TTITLE0=miracle
TTITLE1=混沌とした時代
TTITLE2=バイバイ (Album Version)
TTITLE3=バッタ
TTITLE4=フラット
TTITLE5=LOVE SONGS
TTITLE6=ヒゲパワー
TTITLE7=Nightmare
TTITLE8=夢のブランコ (Album Version)
TTITLE9=ボルネオママ
TTITLE10=MARACAS MAN （New Version）
EXTD=YEAR: 1997
EXTT0=
EXTT1=
EXTT2=
EXTT3=
EXTT4=
EXTT5=
EXTT6=
EXTT7=
EXTT8=
EXTT9=
EXTT10=
PLAYORDER=
